<?xml version="1.0" encoding="UTF-8" standalone="no"?>
<!-- Created with Inkscape (http://www.inkscape.org/) -->

<svg
   width="153.45833mm"
   height="75.405807mm"
   viewBox="0 0 153.45832 75.405807"
   version="1.1"
   id="svg1"
   inkscape:version="1.4 (1:1.4+202410161351+e7c3feb100)"
   sodipodi:docname="icon.svg"
   inkscape:export-filename="icon_.png"
   inkscape:export-xdpi="96"
   inkscape:export-ydpi="96"
   inkscape:export-batch-path="/home/marco/Aveiro/Nerdy/Mathematica nbs/PTFB/TBounce/FrontEnd"
   inkscape:export-batch-name="icon_"
   xmlns:inkscape="http://www.inkscape.org/namespaces/inkscape"
   xmlns:sodipodi="http://sodipodi.sourceforge.net/DTD/sodipodi-0.dtd"
   xmlns="http://www.w3.org/2000/svg"
   xmlns:svg="http://www.w3.org/2000/svg">
  <sodipodi:namedview
     id="namedview1"
     pagecolor="#ffffff"
     bordercolor="#000000"
     borderopacity="0.25"
     inkscape:showpageshadow="2"
     inkscape:pageopacity="0.0"
     inkscape:pagecheckerboard="0"
     inkscape:deskcolor="#d1d1d1"
     inkscape:document-units="mm"
     showgrid="false"
     showguides="true"
     inkscape:zoom="1.9213102"
     inkscape:cx="270.90889"
     inkscape:cy="99.671569"
     inkscape:window-width="1920"
     inkscape:window-height="1168"
     inkscape:window-x="0"
     inkscape:window-y="0"
     inkscape:window-maximized="1"
     inkscape:current-layer="text3">
    <inkscape:grid
       id="grid1"
       units="mm"
       originx="-39.6875"
       originy="-19.8442"
       spacingx="0.26458333"
       spacingy="0.26458334"
       empcolor="#0099e5"
       empopacity="0.30196078"
       color="#0099e5"
       opacity="0.14901961"
       empspacing="5"
       enabled="true"
       visible="false" />
  </sodipodi:namedview>
  <defs
     id="defs1">
    <marker
       style="overflow:visible"
       id="marker2"
       refX="0"
       refY="0"
       orient="auto-start-reverse"
       inkscape:stockid="Triangle arrow"
       markerWidth="0.5"
       markerHeight="0.5"
       viewBox="0 0 1 1"
       inkscape:isstock="true"
       inkscape:collect="always"
       preserveAspectRatio="xMidYMid">
      <path
         transform="scale(0.5)"
         style="fill:context-stroke;fill-rule:evenodd;stroke:context-stroke;stroke-width:1pt"
         d="M 5.77,0 -2.88,5 V -5 Z"
         id="path2" />
    </marker>
    <inkscape:path-effect
       effect="simplify"
       id="path-effect58"
       is_visible="true"
       lpeversion="1.3"
       threshold="6.1737671"
       steps="1"
       smooth_angles="360"
       helper_size="10"
       simplify_individual_paths="false"
       simplify_just_coalesce="false" />
    <inkscape:path-effect
       effect="spiro"
       id="path-effect57"
       is_visible="true"
       lpeversion="1" />
  </defs>
  <g
     inkscape:label="Layer 1"
     inkscape:groupmode="layer"
     id="layer1"
     transform="translate(-39.687502,-19.8442)">
    <path
       id="text1"
       style="font-size:74.8854px;fill:#d45500;fill-opacity:1;stroke:none;stroke-width:6.42478;stroke-opacity:1"
       d="m 64.822915,76.729165 v 0 l 1e-6,-39.687496 h -2.645835 v 0 l 5.291667,-5.291668 5.291666,5.291668 h -2.645832 l -10e-7,39.6875 v 0"
       sodipodi:nodetypes="cccccccccc" />
    <g
       id="text3"
       transform="scale(1.0563968,0.94661399)">
      <text
         xml:space="preserve"
         style="font-style:normal;font-variant:normal;font-weight:normal;font-stretch:normal;font-size:3.175px;font-family:'TeX Gyre Adventor';-inkscape-font-specification:'TeX Gyre Adventor';text-align:start;letter-spacing:0px;writing-mode:lr-tb;direction:ltr;text-anchor:start;fill:#c90202;fill-opacity:0.400108;stroke:#c90202;stroke-width:2.351;stroke-dasharray:none;stroke-opacity:1"
         x="83.591446"
         y="31.75"
         id="text16"
         transform="scale(0.946614,1.0563968)"><tspan
           sodipodi:role="line"
           id="tspan16"
           style="stroke-width:2.351"
           x="83.591446"
           y="31.75" /></text>
      <path
         id="path36"
         style="font-size:70.9696px;font-family:'TeX Gyre Adventor';-inkscape-font-specification:'TeX Gyre Adventor';letter-spacing:0px;fill:none;stroke:#224a86;stroke-width:5;stroke-linecap:round;stroke-dasharray:none;stroke-opacity:1"
         d="m 80.14665,61.4911 c 6.261457,-2.79505 8.766038,-8.584796 8.766039,-15.372775 10e-7,-12.218361 -11.270621,-18.167825 -25.045827,-16.7703 -3.741446,0.379578 -8.76604,1.397525 -11.270623,2.79505"
         sodipodi:nodetypes="cssc" />
      <path
         id="path42"
         style="font-weight:bold;font-size:71.0294px;font-family:AnjaliOldLipi;-inkscape-font-specification:'AnjaliOldLipi Bold';letter-spacing:0px;fill:none;stroke:#224a86;stroke-width:5.315;stroke-linecap:round;stroke-dasharray:none;stroke-opacity:1"
         d="m 136.49976,69.87625 3.75688,-10e-7 c 0,1.21306 0.0963,1.894283 -0.20208,2.752547 -0.57427,1.651915 -1.73963,3.012545 -2.91445,4.204456 -2.20254,2.234588 -4.57878,4.012095 -7.55044,5.321304 -2.97166,1.309209 -5.74117,1.953255 -8.30852,1.93214 -4.81127,0 -9.23842,-1.647072 -13.28149,-4.941211 -3.13339,-2.555069 -5.3672,-6.134279 -6.70141,-10.737628 -0.68732,-2.407256 -1.04108,-5.194604 -1.0613,-8.362048 0,-5.78586 1.35443,-10.66372 4.0633,-14.63358 2.16303,-3.167443 4.85168,-5.51135 8.06593,-7.031722 3.21424,-1.520371 6.04438,-2.280559 8.49045,-2.280559 3.78027,0 7.55043,1.129722 11.3105,3.389164 0.82235,0.49175 1.57621,1.030294 2.26155,1.615629"
         sodipodi:nodetypes="ccaascccccsscc" />
      <text
         xml:space="preserve"
         style="font-style:normal;font-variant:normal;font-weight:bold;font-stretch:normal;font-size:3.175px;font-family:AnjaliOldLipi;-inkscape-font-specification:'AnjaliOldLipi Bold';text-align:start;letter-spacing:0px;writing-mode:lr-tb;direction:ltr;text-anchor:start;fill:#000000;fill-opacity:1;stroke:#000000;stroke-width:5.37199;stroke-linecap:round;stroke-dasharray:none;stroke-opacity:1"
         x="181.23958"
         y="79.375"
         id="text44"
         transform="scale(0.946614,1.0563968)"><tspan
           sodipodi:role="line"
           id="tspan44"
           style="stroke-width:5.372"
           x="181.23958"
           y="79.375" /></text>
      <path
         id="path42-8"
         style="font-weight:bold;font-size:71.0294px;font-family:AnjaliOldLipi;-inkscape-font-specification:'AnjaliOldLipi Bold';letter-spacing:0px;fill:none;stroke:#224a86;stroke-width:5.315;stroke-linecap:round;stroke-dasharray:none;stroke-opacity:1"
         d="m 166.29563,51.579585 c 4.016,2.92389 9.02517,11.509525 9.02517,19.69419 0,19.565349 -16.27979,20.962874 -20.03667,20.962874 -7.60023,0 -11.60895,-2.3418 -14.08019,-7.346073"
         sodipodi:nodetypes="cssc"
         transform="matrix(1,0,0,1.0029921,0,-0.14637858)" />
      <path
         d="m 111.20915,72.6713 c -1.90715,-1.730636 -3.26678,-4.154956 -4.07885,-7.272962 -0.41834,-1.630515 -0.63365,-3.518483 -0.64598,-5.663899 0,-3.918959 0.82439,-7.222901 2.47315,-9.911821 1.31656,-2.145418 2.95301,-3.733025 4.9094,-4.762824"
         style="font-weight:bold;font-size:71.0294px;font-family:AnjaliOldLipi;-inkscape-font-specification:'AnjaliOldLipi Bold';letter-spacing:0px;fill:none;stroke:#224a86;stroke-width:2;stroke-linecap:round;stroke-dasharray:none;stroke-opacity:1"
         id="path1-5" />
      <path
         d="m 113.88008,68.938413 c -1.20639,-1.199204 -2.06643,-2.879081 -2.58011,-5.03963 -0.26463,-1.129828 -0.40083,-2.438051 -0.40862,-3.924667 0,-2.715552 0.52147,-5.004941 1.56441,-6.868166 0.8328,-1.486617 1.86795,-2.586713 3.10549,-3.300288"
         style="font-weight:bold;font-size:71.0294px;font-family:AnjaliOldLipi;-inkscape-font-specification:'AnjaliOldLipi Bold';letter-spacing:0px;fill:none;stroke:#224a86;stroke-width:1.5;stroke-linecap:round;stroke-dasharray:none;stroke-opacity:1"
         id="path1-5-2" />
      <path
         id="path42-8-7"
         style="font-weight:bold;font-size:71.0294px;font-family:AnjaliOldLipi;-inkscape-font-specification:'AnjaliOldLipi Bold';letter-spacing:0px;fill:none;stroke:#224a86;stroke-width:1.99208;stroke-linecap:round;stroke-dasharray:none;stroke-opacity:1"
         d="m 164.75991,58.69605 c 2.29771,3.171569 4.29943,7.893437 4.29943,12.45634 0,3.015577 -0.3146,10.374183 -7.51375,14.399025"
         sodipodi:nodetypes="csc" />
      <path
         id="path42-8-7-6"
         style="font-weight:bold;font-size:71.0294px;font-family:AnjaliOldLipi;-inkscape-font-specification:'AnjaliOldLipi Bold';letter-spacing:0px;fill:none;stroke:#224a86;stroke-width:1.5;stroke-linecap:round;stroke-dasharray:none;stroke-opacity:1"
         d="m 162.18138,63.525017 c 1.43072,2.137126 2.62016,5.129924 2.62016,8.028263 0,1.967001 -0.19712,6.655367 -4.5461,9.444125"
         sodipodi:nodetypes="csc" />
      <path
         style="fill:none;stroke:#d45500;stroke-width:2;stroke-linecap:round;stroke-dasharray:none;stroke-opacity:1;marker-end:url(#marker2)"
         d="m 121.47227,78.2614 c 11.27062,1e-6 6.26145,-13.975249 17.53208,-13.975249 13.7752,0 2.10496,16.727868 15.02749,20.962875"
         id="path1"
         sodipodi:nodetypes="csc" />
    </g>
    <path
       style="fill:#000000;fill-opacity:1;stroke:#224a86;stroke-width:5.372;stroke-linecap:round;stroke-dasharray:none;stroke-opacity:1"
       d="M 47.624999,79.375004 H 87.312498"
       id="path44"
       sodipodi:nodetypes="cc" />
  </g>
</svg>
