<?xml version="1.0" encoding="UTF-8" standalone="no"?>
<!-- Created with Inkscape (http://www.inkscape.org/) -->

<svg
   width="166.76396mm"
   height="75.482712mm"
   viewBox="0 0 166.76395 75.482712"
   version="1.1"
   id="svg1"
   inkscape:version="1.4 (1:1.4+202410161351+e7c3feb100)"
   sodipodi:docname="icon.svg"
   inkscape:export-filename="icon_.png"
   inkscape:export-xdpi="96"
   inkscape:export-ydpi="96"
   inkscape:export-batch-path="/home/marco/Aveiro/Nerdy/Mathematica nbs/PTFB/TBounce/FrontEnd"
   inkscape:export-batch-name="icon_"
   xmlns:inkscape="http://www.inkscape.org/namespaces/inkscape"
   xmlns:sodipodi="http://sodipodi.sourceforge.net/DTD/sodipodi-0.dtd"
   xmlns="http://www.w3.org/2000/svg"
   xmlns:svg="http://www.w3.org/2000/svg">
  <sodipodi:namedview
     id="namedview1"
     pagecolor="#ffffff"
     bordercolor="#000000"
     borderopacity="0.25"
     inkscape:showpageshadow="2"
     inkscape:pageopacity="0.0"
     inkscape:pagecheckerboard="0"
     inkscape:deskcolor="#d1d1d1"
     inkscape:document-units="mm"
     showgrid="true"
     showguides="true"
     inkscape:zoom="2"
     inkscape:cx="405.75"
     inkscape:cy="141.75"
     inkscape:window-width="1920"
     inkscape:window-height="988"
     inkscape:window-x="0"
     inkscape:window-y="0"
     inkscape:window-maximized="1"
     inkscape:current-layer="text3">
    <inkscape:grid
       id="grid1"
       units="mm"
       originx="-39.624267"
       originy="-19.780523"
       spacingx="0.26458333"
       spacingy="0.26458334"
       empcolor="#0099e5"
       empopacity="0.30196078"
       color="#0099e5"
       opacity="0.14901961"
       empspacing="5"
       enabled="true"
       visible="true" />
  </sodipodi:namedview>
  <defs
     id="defs1">
    <marker
       style="overflow:visible"
       id="marker2"
       refX="0"
       refY="0"
       orient="auto-start-reverse"
       inkscape:stockid="Triangle arrow"
       markerWidth="0.5"
       markerHeight="0.5"
       viewBox="0 0 1 1"
       inkscape:isstock="true"
       inkscape:collect="always"
       preserveAspectRatio="xMidYMid">
      <path
         transform="scale(0.5)"
         style="fill:context-stroke;fill-rule:evenodd;stroke:context-stroke;stroke-width:1pt"
         d="M 5.77,0 -2.88,5 V -5 Z"
         id="path2" />
    </marker>
    <inkscape:path-effect
       effect="simplify"
       id="path-effect58"
       is_visible="true"
       lpeversion="1.3"
       threshold="6.1737671"
       steps="1"
       smooth_angles="360"
       helper_size="10"
       simplify_individual_paths="false"
       simplify_just_coalesce="false" />
    <inkscape:path-effect
       effect="spiro"
       id="path-effect57"
       is_visible="true"
       lpeversion="1" />
  </defs>
  <g
     inkscape:label="Layer 1"
     inkscape:groupmode="layer"
     id="layer1"
     transform="translate(-39.62427,-19.780521)">
    <path
       id="text1"
       style="font-size:74.8854px;fill:#d45500;fill-opacity:1;stroke:none;stroke-width:6.42478;stroke-opacity:1"
       d="m 64.822915,76.729165 v 0 l 1e-6,-39.687496 h -2.645835 v 0 l 5.291667,-5.291668 5.291666,5.291668 h -2.645832 l -10e-7,39.6875 v 0"
       sodipodi:nodetypes="cccccccccc" />
    <g
       id="text3"
       transform="scale(1.0563968,0.94661399)">
      <text
         xml:space="preserve"
         style="font-style:normal;font-variant:normal;font-weight:normal;font-stretch:normal;font-size:3.175px;font-family:'TeX Gyre Adventor';-inkscape-font-specification:'TeX Gyre Adventor';text-align:start;letter-spacing:0px;writing-mode:lr-tb;direction:ltr;text-anchor:start;fill:#c90202;fill-opacity:0.400108;stroke:#c90202;stroke-width:2.351;stroke-dasharray:none;stroke-opacity:1"
         x="83.591446"
         y="31.75"
         id="text16"
         transform="scale(0.946614,1.0563968)"><tspan
           sodipodi:role="line"
           id="tspan16"
           style="stroke-width:2.351"
           x="83.591446"
           y="31.75" /></text>
      <path
         id="path36"
         style="font-size:70.9696px;font-family:'TeX Gyre Adventor';-inkscape-font-specification:'TeX Gyre Adventor';letter-spacing:0px;fill:none;stroke:#224a86;stroke-width:5;stroke-linecap:round;stroke-dasharray:none;stroke-opacity:1"
         d="m 80.14665,61.4911 c 6.261457,-2.79505 8.766038,-8.584796 8.766039,-15.372775 10e-7,-12.218361 -11.270621,-18.167825 -25.045827,-16.7703 -3.741446,0.379578 -8.76604,1.397525 -11.270623,2.79505"
         sodipodi:nodetypes="cssc" />
      <path
         id="path42"
         style="font-weight:bold;font-size:71.0294px;font-family:AnjaliOldLipi;-inkscape-font-specification:'AnjaliOldLipi Bold';letter-spacing:0px;fill:none;stroke:#224a86;stroke-width:5.315;stroke-linecap:round;stroke-dasharray:none;stroke-opacity:1"
         d="m 136.49976,69.87625 3.75688,-10e-7 c 0,1.21306 0.0963,1.894283 -0.20208,2.752547 -0.57427,1.651915 -1.73963,3.012545 -2.91445,4.204456 -2.20254,2.234588 -4.57878,4.012095 -7.55044,5.321304 -2.97166,1.309209 -5.74117,1.953255 -8.30852,1.93214 -4.81127,0 -9.23842,-1.647072 -13.28149,-4.941211 -3.13339,-2.555069 -5.3672,-6.134279 -6.70141,-10.737628 -0.68732,-2.407256 -1.04108,-5.194604 -1.0613,-8.362048 0,-5.78586 1.35443,-10.66372 4.0633,-14.63358 2.16303,-3.167443 4.85168,-5.51135 8.06593,-7.031722 3.21424,-1.520371 6.04438,-2.280559 8.49045,-2.280559 3.78027,0 6.97907,0.235702 10.90421,2.43779"
         sodipodi:nodetypes="ccaascccccssc"
         transform="matrix(0.95503521,0,0,1,11.478706,0.04776664)" />
      <text
         xml:space="preserve"
         style="font-style:normal;font-variant:normal;font-weight:bold;font-stretch:normal;font-size:3.175px;font-family:AnjaliOldLipi;-inkscape-font-specification:'AnjaliOldLipi Bold';text-align:start;letter-spacing:0px;writing-mode:lr-tb;direction:ltr;text-anchor:start;fill:#000000;fill-opacity:1;stroke:#000000;stroke-width:5.37199;stroke-linecap:round;stroke-dasharray:none;stroke-opacity:1"
         x="181.23958"
         y="79.375"
         id="text44"
         transform="scale(0.946614,1.0563968)"><tspan
           sodipodi:role="line"
           id="tspan44"
           style="stroke-width:5.372"
           x="181.23958"
           y="79.375" /></text>
      <path
         id="path42-8"
         style="font-weight:bold;font-size:71.0294px;font-family:AnjaliOldLipi;-inkscape-font-specification:'AnjaliOldLipi Bold';letter-spacing:0px;fill:none;stroke:#224a86;stroke-width:5.315;stroke-linecap:round;stroke-dasharray:none;stroke-opacity:1"
         d="m 166.29563,51.579585 c 4.016,2.92389 9.02517,11.509525 9.02517,19.69419 0,19.565349 -16.27979,20.962874 -20.03667,20.962874 -7.60023,0 -12.14607,-3.735156 -14.48303,-7.346073"
         sodipodi:nodetypes="cssc"
         transform="matrix(0.98145698,0,0,1.0029921,7.9137197,-0.14637858)" />
      <path
         style="fill:none;stroke:#d45500;stroke-width:2;stroke-linecap:round;stroke-dasharray:none;stroke-opacity:1;marker-end:url(#marker2)"
         d="m 121.47227,78.2614 c 11.27062,1e-6 6.26145,-13.975249 17.53208,-13.975249 13.7752,0 2.10496,16.727868 15.02749,20.962875"
         id="path1"
         sodipodi:nodetypes="csc"
         transform="matrix(1.0523818,0,0,1,-1.9126667,0)" />
      <path
         style="fill:none;stroke:#224a86;stroke-width:7.55905;stroke-linecap:round;stroke-dasharray:none"
         d="m 276.89438,82.495787 c -23.42152,24.709453 -22.38056,89.401143 0,120.750933"
         id="path3"
         transform="matrix(0.29261146,0,0,0.27950499,24.840325,20.96335)"
         sodipodi:nodetypes="cc" />
      <path
         style="fill:none;stroke:#224a86;stroke-width:5.66929;stroke-linecap:round;stroke-dasharray:none"
         d="m 267.14181,97.997908 c -10.62631,25.082152 -9.68385,63.530392 1.77815,90.709342"
         id="path3-2"
         transform="matrix(0.29261146,0,0,0.27950499,20.762271,21.227449)"
         sodipodi:nodetypes="cc" />
      <path
         style="fill:none;stroke:#224a86;stroke-width:7.55905;stroke-linecap:round;stroke-dasharray:none"
         d="m 276.89438,82.495787 c 27.32431,34.220733 29.44182,91.309113 0,120.750933"
         id="path3-7"
         transform="matrix(0.26357775,0,0,0.27950499,107.24129,31.484656)"
         sodipodi:nodetypes="cc" />
      <path
         style="fill:none;stroke:#224a86;stroke-width:5.66929;stroke-linecap:round;stroke-dasharray:none"
         d="m 288.42245,101.26907 c 12.69444,27.37886 13.34878,61.38276 -0.009,86.33369"
         id="path3-7-0"
         transform="matrix(0.26357775,0,0,0.27950499,111.04389,31.484656)"
         sodipodi:nodetypes="cc" />
    </g>
    <path
       style="fill:#000000;fill-opacity:1;stroke:#224a86;stroke-width:5.372;stroke-linecap:round;stroke-dasharray:none;stroke-opacity:1"
       d="M 47.624999,79.375004 H 87.312498"
       id="path44"
       sodipodi:nodetypes="cc" />
  </g>
</svg>
